<mxfile host="app.diagrams.net" modified="2024-04-22T13:32:30.838Z" agent="Mozilla/5.0 (Windows NT 10.0; Win64; x64; rv:125.0) Gecko/20100101 Firefox/125.0" etag="9fwBX6_tiiask6YdsQKL" version="24.0.7" type="github">
  <diagram name="Page-1" id="QMZkgVr2zvwKohGMbzhy">
    <mxGraphModel dx="1221" dy="761" grid="1" gridSize="10" guides="1" tooltips="1" connect="1" arrows="1" fold="1" page="1" pageScale="1" pageWidth="850" pageHeight="1100" math="0" shadow="0">
      <root>
        <mxCell id="0" />
        <mxCell id="1" parent="0" />
        <mxCell id="J9flLAHnNrRXOytV0JIl-2" value="" style="rounded=0;whiteSpace=wrap;html=1;" vertex="1" parent="1">
          <mxGeometry y="440" width="850" height="440" as="geometry" />
        </mxCell>
        <mxCell id="J9flLAHnNrRXOytV0JIl-37" value="" style="rounded=0;whiteSpace=wrap;html=1;fillColor=#ffe6cc;strokeColor=#d79b00;" vertex="1" parent="1">
          <mxGeometry y="440" width="120" height="440" as="geometry" />
        </mxCell>
        <mxCell id="J9flLAHnNrRXOytV0JIl-39" value="" style="rounded=0;whiteSpace=wrap;html=1;fillColor=#d5e8d4;strokeColor=#82b366;" vertex="1" parent="1">
          <mxGeometry y="588" width="120" height="60" as="geometry" />
        </mxCell>
        <mxCell id="J9flLAHnNrRXOytV0JIl-38" value="" style="rounded=0;whiteSpace=wrap;html=1;fillColor=#dae8fc;strokeColor=#6c8ebf;" vertex="1" parent="1">
          <mxGeometry y="528" width="120" height="60" as="geometry" />
        </mxCell>
        <mxCell id="J9flLAHnNrRXOytV0JIl-1" value="" style="rounded=0;whiteSpace=wrap;html=1;" vertex="1" parent="1">
          <mxGeometry width="850" height="440" as="geometry" />
        </mxCell>
        <mxCell id="J9flLAHnNrRXOytV0JIl-3" value="" style="rounded=0;whiteSpace=wrap;html=1;fillColor=#ffe6cc;strokeColor=#d79b00;" vertex="1" parent="1">
          <mxGeometry width="120" height="440" as="geometry" />
        </mxCell>
        <mxCell id="J9flLAHnNrRXOytV0JIl-5" value="" style="rounded=0;whiteSpace=wrap;html=1;fillColor=#dae8fc;strokeColor=#6c8ebf;" vertex="1" parent="1">
          <mxGeometry x="300" y="470" width="280" height="370" as="geometry" />
        </mxCell>
        <mxCell id="J9flLAHnNrRXOytV0JIl-6" value="" style="rounded=0;whiteSpace=wrap;html=1;fillColor=#dae8fc;strokeColor=#6c8ebf;" vertex="1" parent="1">
          <mxGeometry x="360" y="140" width="200" height="70" as="geometry" />
        </mxCell>
        <mxCell id="J9flLAHnNrRXOytV0JIl-7" value="" style="rounded=0;whiteSpace=wrap;html=1;fillColor=#dae8fc;strokeColor=#6c8ebf;" vertex="1" parent="1">
          <mxGeometry x="390" y="230" width="90" height="30" as="geometry" />
        </mxCell>
        <mxCell id="J9flLAHnNrRXOytV0JIl-8" value="" style="rounded=0;whiteSpace=wrap;html=1;fillColor=#d5e8d4;strokeColor=#82b366;" vertex="1" parent="1">
          <mxGeometry x="490" y="230" width="40" height="30" as="geometry" />
        </mxCell>
        <mxCell id="J9flLAHnNrRXOytV0JIl-9" value="" style="rounded=0;whiteSpace=wrap;html=1;fillColor=#dae8fc;strokeColor=#6c8ebf;" vertex="1" parent="1">
          <mxGeometry x="410" y="280" width="110" height="30" as="geometry" />
        </mxCell>
        <mxCell id="J9flLAHnNrRXOytV0JIl-10" value="" style="rounded=0;whiteSpace=wrap;html=1;fillColor=#dae8fc;strokeColor=#6c8ebf;" vertex="1" parent="1">
          <mxGeometry x="410" y="330" width="110" height="30" as="geometry" />
        </mxCell>
        <mxCell id="J9flLAHnNrRXOytV0JIl-11" value="&lt;font style=&quot;font-size: 20px;&quot;&gt;Sunny Task Buddy&lt;/font&gt;" style="text;html=1;align=center;verticalAlign=middle;whiteSpace=wrap;rounded=0;" vertex="1" parent="1">
          <mxGeometry x="345" y="80" width="230" height="30" as="geometry" />
        </mxCell>
        <mxCell id="J9flLAHnNrRXOytV0JIl-14" value="" style="rounded=0;whiteSpace=wrap;html=1;fillColor=#f8cecc;strokeColor=#b85450;" vertex="1" parent="1">
          <mxGeometry x="480" y="280" width="40" height="30" as="geometry" />
        </mxCell>
        <mxCell id="J9flLAHnNrRXOytV0JIl-17" value="" style="rounded=0;whiteSpace=wrap;html=1;fillColor=#f8cecc;strokeColor=#b85450;" vertex="1" parent="1">
          <mxGeometry x="480" y="330" width="40" height="30" as="geometry" />
        </mxCell>
        <mxCell id="J9flLAHnNrRXOytV0JIl-20" value="&lt;h1 style=&quot;margin-top: 0px;&quot;&gt;&lt;br&gt;&lt;/h1&gt;&lt;p style=&quot;font-size: 10px;&quot;&gt;Lorem ipsum dolor sit amet, consectetur adipisicing elit, sed do eiusmod tempor incididunt ut labore et dolore magna aliqua.&lt;/p&gt;" style="text;html=1;whiteSpace=wrap;overflow=hidden;rounded=0;" vertex="1" parent="1">
          <mxGeometry x="370" y="105" width="190" height="140" as="geometry" />
        </mxCell>
        <mxCell id="J9flLAHnNrRXOytV0JIl-22" value="" style="rounded=0;whiteSpace=wrap;html=1;fillColor=#d5e8d4;strokeColor=#82b366;" vertex="1" parent="1">
          <mxGeometry y="80" width="120" height="60" as="geometry" />
        </mxCell>
        <mxCell id="J9flLAHnNrRXOytV0JIl-23" value="" style="rounded=0;whiteSpace=wrap;html=1;fillColor=#dae8fc;strokeColor=#6c8ebf;" vertex="1" parent="1">
          <mxGeometry y="140" width="120" height="60" as="geometry" />
        </mxCell>
        <mxCell id="J9flLAHnNrRXOytV0JIl-24" value="" style="rounded=0;whiteSpace=wrap;html=1;fillColor=#dae8fc;strokeColor=#6c8ebf;" vertex="1" parent="1">
          <mxGeometry x="25" y="20" width="70" height="40" as="geometry" />
        </mxCell>
        <mxCell id="J9flLAHnNrRXOytV0JIl-25" value="Toggle Menu" style="text;html=1;align=center;verticalAlign=middle;whiteSpace=wrap;rounded=0;" vertex="1" parent="1">
          <mxGeometry x="30" y="25" width="60" height="30" as="geometry" />
        </mxCell>
        <mxCell id="J9flLAHnNrRXOytV0JIl-26" value="Home" style="text;html=1;align=center;verticalAlign=middle;whiteSpace=wrap;rounded=0;" vertex="1" parent="1">
          <mxGeometry x="25" y="95" width="60" height="30" as="geometry" />
        </mxCell>
        <mxCell id="J9flLAHnNrRXOytV0JIl-28" value="Contact" style="text;html=1;align=center;verticalAlign=middle;whiteSpace=wrap;rounded=0;" vertex="1" parent="1">
          <mxGeometry x="30" y="155" width="60" height="30" as="geometry" />
        </mxCell>
        <mxCell id="J9flLAHnNrRXOytV0JIl-33" value="" style="rounded=0;whiteSpace=wrap;html=1;fillColor=#dae8fc;strokeColor=#6c8ebf;" vertex="1" parent="1">
          <mxGeometry x="25" y="468" width="70" height="40" as="geometry" />
        </mxCell>
        <mxCell id="J9flLAHnNrRXOytV0JIl-34" value="Toggle Menu" style="text;html=1;align=center;verticalAlign=middle;whiteSpace=wrap;rounded=0;" vertex="1" parent="1">
          <mxGeometry x="30" y="473" width="60" height="30" as="geometry" />
        </mxCell>
        <mxCell id="J9flLAHnNrRXOytV0JIl-35" value="Home" style="text;html=1;align=center;verticalAlign=middle;whiteSpace=wrap;rounded=0;" vertex="1" parent="1">
          <mxGeometry x="25" y="543" width="60" height="30" as="geometry" />
        </mxCell>
        <mxCell id="J9flLAHnNrRXOytV0JIl-36" value="Contact" style="text;html=1;align=center;verticalAlign=middle;whiteSpace=wrap;rounded=0;" vertex="1" parent="1">
          <mxGeometry x="30" y="603" width="60" height="30" as="geometry" />
        </mxCell>
        <mxCell id="J9flLAHnNrRXOytV0JIl-40" value="" style="rounded=0;whiteSpace=wrap;html=1;" vertex="1" parent="1">
          <mxGeometry x="335" y="528" width="210" height="30" as="geometry" />
        </mxCell>
        <mxCell id="J9flLAHnNrRXOytV0JIl-41" value="" style="rounded=0;whiteSpace=wrap;html=1;" vertex="1" parent="1">
          <mxGeometry x="330" y="588" width="210" height="30" as="geometry" />
        </mxCell>
        <mxCell id="J9flLAHnNrRXOytV0JIl-42" value="" style="rounded=0;whiteSpace=wrap;html=1;" vertex="1" parent="1">
          <mxGeometry x="335" y="710" width="210" height="80" as="geometry" />
        </mxCell>
        <mxCell id="J9flLAHnNrRXOytV0JIl-43" value="" style="rounded=0;whiteSpace=wrap;html=1;" vertex="1" parent="1">
          <mxGeometry x="330" y="660" width="210" height="30" as="geometry" />
        </mxCell>
        <mxCell id="J9flLAHnNrRXOytV0JIl-44" value="" style="rounded=0;whiteSpace=wrap;html=1;" vertex="1" parent="1">
          <mxGeometry x="510" y="800" width="50" height="30" as="geometry" />
        </mxCell>
        <mxCell id="J9flLAHnNrRXOytV0JIl-45" value="Questions?Contact Us!" style="text;html=1;align=center;verticalAlign=middle;whiteSpace=wrap;rounded=0;" vertex="1" parent="1">
          <mxGeometry x="390" y="490" width="100" height="30" as="geometry" />
        </mxCell>
        <mxCell id="J9flLAHnNrRXOytV0JIl-46" value="First Name" style="text;html=1;align=center;verticalAlign=middle;whiteSpace=wrap;rounded=0;" vertex="1" parent="1">
          <mxGeometry x="390" y="528" width="100" height="30" as="geometry" />
        </mxCell>
        <mxCell id="J9flLAHnNrRXOytV0JIl-47" value="Last Name" style="text;html=1;align=center;verticalAlign=middle;whiteSpace=wrap;rounded=0;" vertex="1" parent="1">
          <mxGeometry x="375" y="588" width="100" height="30" as="geometry" />
        </mxCell>
        <mxCell id="J9flLAHnNrRXOytV0JIl-48" value="Email" style="text;html=1;align=center;verticalAlign=middle;whiteSpace=wrap;rounded=0;" vertex="1" parent="1">
          <mxGeometry x="385" y="660" width="100" height="30" as="geometry" />
        </mxCell>
        <mxCell id="J9flLAHnNrRXOytV0JIl-49" value="Message" style="text;html=1;align=center;verticalAlign=middle;whiteSpace=wrap;rounded=0;" vertex="1" parent="1">
          <mxGeometry x="390" y="735" width="100" height="30" as="geometry" />
        </mxCell>
        <mxCell id="J9flLAHnNrRXOytV0JIl-50" value="send" style="text;html=1;align=center;verticalAlign=middle;whiteSpace=wrap;rounded=0;" vertex="1" parent="1">
          <mxGeometry x="485" y="800" width="100" height="30" as="geometry" />
        </mxCell>
        <mxCell id="J9flLAHnNrRXOytV0JIl-51" value="Task" style="text;html=1;align=center;verticalAlign=middle;whiteSpace=wrap;rounded=0;" vertex="1" parent="1">
          <mxGeometry x="405" y="230" width="60" height="30" as="geometry" />
        </mxCell>
        <mxCell id="J9flLAHnNrRXOytV0JIl-52" value="import" style="text;html=1;align=center;verticalAlign=middle;whiteSpace=wrap;rounded=0;" vertex="1" parent="1">
          <mxGeometry x="480" y="230" width="60" height="30" as="geometry" />
        </mxCell>
        <mxCell id="J9flLAHnNrRXOytV0JIl-53" value="&lt;font style=&quot;font-size: 9px;&quot;&gt;Remove&lt;/font&gt;" style="text;html=1;align=center;verticalAlign=middle;whiteSpace=wrap;rounded=0;" vertex="1" parent="1">
          <mxGeometry x="470" y="280" width="60" height="30" as="geometry" />
        </mxCell>
        <mxCell id="J9flLAHnNrRXOytV0JIl-54" value="&lt;font style=&quot;font-size: 9px;&quot;&gt;Remove&lt;/font&gt;" style="text;html=1;align=center;verticalAlign=middle;whiteSpace=wrap;rounded=0;" vertex="1" parent="1">
          <mxGeometry x="470" y="330" width="60" height="30" as="geometry" />
        </mxCell>
        <mxCell id="J9flLAHnNrRXOytV0JIl-55" value="Task" style="text;html=1;align=center;verticalAlign=middle;whiteSpace=wrap;rounded=0;" vertex="1" parent="1">
          <mxGeometry x="410" y="280" width="60" height="30" as="geometry" />
        </mxCell>
        <mxCell id="J9flLAHnNrRXOytV0JIl-56" value="Task" style="text;html=1;align=center;verticalAlign=middle;whiteSpace=wrap;rounded=0;" vertex="1" parent="1">
          <mxGeometry x="415" y="330" width="60" height="30" as="geometry" />
        </mxCell>
      </root>
    </mxGraphModel>
  </diagram>
</mxfile>
